<?xml version="1.0" encoding="UTF-8" standalone="no" ?>
<!DOCTYPE svg PUBLIC "-//W3C//DTD SVG 1.1//EN" "http://www.w3.org/Graphics/SVG/1.1/DTD/svg11.dtd">
<svg xmlns="http://www.w3.org/2000/svg" xmlns:xlink="http://www.w3.org/1999/xlink" version="1.1" width="1080" height="1080" viewBox="0 0 1080 1080" xml:space="preserve">
<desc>Created with Fabric.js 5.2.4</desc>
<defs>
</defs>
<g transform="matrix(1 0 0 1 540 540)" id="a27f0768-893e-4e72-8fcc-31fb14e3c06d"  >
</g>
<g transform="matrix(1 0 0 1 540 540)" id="2909516e-817d-4bdc-bb12-7538644bae2b"  >
<rect style="stroke: none; stroke-width: 1; stroke-dasharray: none; stroke-linecap: butt; stroke-dashoffset: 0; stroke-linejoin: miter; stroke-miterlimit: 4; fill: rgb(255,255,255); fill-rule: nonzero; opacity: 1; visibility: hidden;" vector-effect="non-scaling-stroke"  x="-540" y="-540" rx="0" ry="0" width="1080" height="1080" />
</g>
<g transform="matrix(14.89 0 0 14.89 541.41 538.65)" id="490d837a-7dcc-40e2-8dc9-253a987147ee"  >
<circle style="stroke: rgb(0,0,0); stroke-width: 0; stroke-dasharray: none; stroke-linecap: butt; stroke-dashoffset: 0; stroke-linejoin: miter; stroke-miterlimit: 4; fill: rgb(241,96,24); fill-rule: nonzero; opacity: 1;" vector-effect="non-scaling-stroke"  cx="0" cy="0" r="35" />
</g>
<g transform="matrix(1 0 0 1 540 540)"  >
<g style="" vector-effect="non-scaling-stroke"   >
		<g transform="matrix(1.89 0 0 1.89 156.79 271.51)"  >
<path style="stroke: none; stroke-width: 1; stroke-dasharray: none; stroke-linecap: butt; stroke-dashoffset: 0; stroke-linejoin: miter; stroke-miterlimit: 4; fill: rgb(255,255,255); fill-rule: nonzero; opacity: 1;" vector-effect="non-scaling-stroke"  transform=" translate(-294.81, -355.62)" d="M 189.294 385.219 L 301.81600000000003 423.757 L 400.33000000000004 325.248 L 287.03000000000003 287.483 L 189.294 385.219 z M 239.962 379.203 C 234.00199999999998 385.16299999999995 224.29 387.743 218.26299999999998 384.96299999999997 C 212.242 382.183 212.18599999999998 375.102 218.14999999999998 369.14199999999994 C 224.10999999999999 363.18199999999996 233.82199999999997 360.6019999999999 239.849 363.38199999999995 C 245.875 366.162 245.921 373.243 239.962 379.203 z M 276.298 391.931 C 270.338 397.89099999999996 260.626 400.471 254.599 397.691 C 248.578 394.911 248.522 387.83 254.486 381.86999999999995 C 260.45099999999996 375.90999999999997 270.158 373.3299999999999 276.185 376.10999999999996 C 282.207 378.89 282.258 385.971 276.298 391.931 z M 349.56 334.94 C 355.52 328.98 365.232 326.4 371.259 329.18 C 377.28000000000003 331.96 377.336 339.041 371.377 345.00100000000003 C 365.418 350.96100000000007 355.705 353.54100000000005 349.678 350.761 C 343.651 347.981 343.601 340.9 349.56 334.94 z M 313.331 323.031 C 319.291 317.071 329.00300000000004 314.491 335.03000000000003 317.271 C 341.05100000000004 320.051 341.107 327.132 335.14300000000003 333.09200000000004 C 329.18300000000005 339.052 319.471 341.63200000000006 313.444 338.85200000000003 C 307.423 336.072 307.372 328.991 313.331 323.031 z M 312.415 388.019 C 318.43600000000004 390.799 318.492 397.88 312.528 403.84000000000003 C 306.56800000000004 409.8 296.856 412.38000000000005 290.829 409.6 C 284.802 406.82 284.752 399.73900000000003 290.711 393.779 C 296.676 387.825 306.388 385.244 312.415 388.019 z M 298.693 304.538 C 304.714 307.318 304.77 314.399 298.806 320.35900000000004 C 292.846 326.319 283.13399999999996 328.89900000000006 277.10699999999997 326.119 C 271.08599999999996 323.33900000000006 271.03 316.25800000000004 276.99399999999997 310.298 C 282.954 304.338 292.667 301.763 298.693 304.538 z" stroke-linecap="round" />
</g>
		<g transform="matrix(1.89 0 0 1.89 218.91 48.01)"  >
<path style="stroke: none; stroke-width: 1; stroke-dasharray: none; stroke-linecap: butt; stroke-dashoffset: 0; stroke-linejoin: miter; stroke-miterlimit: 4; fill: rgb(255,255,255); fill-rule: nonzero; opacity: 1;" vector-effect="non-scaling-stroke"  transform=" translate(-327.75, -237.23)" d="M 402.158 311.634 L 364.956 200.02300000000002 L 253.34500000000003 162.81600000000003 L 290.547 274.422 L 402.158 311.634 z M 319.281 224.118 C 323.449 219.95 331.825 221.563 337.98900000000003 227.728 C 344.1530000000001 233.89300000000003 345.771 242.269 341.59900000000005 246.436 C 337.43100000000004 250.604 329.05500000000006 248.991 322.8910000000001 242.826 C 316.726 236.662 315.108 228.285 319.281 224.118 z" stroke-linecap="round" />
</g>
		<g transform="matrix(1.89 0 0 1.89 -144.6 -300.56)"  >
<path style="stroke: none; stroke-width: 1; stroke-dasharray: none; stroke-linecap: butt; stroke-dashoffset: 0; stroke-linejoin: miter; stroke-miterlimit: 4; fill: rgb(255,255,255); fill-rule: nonzero; opacity: 1;" vector-effect="non-scaling-stroke"  transform=" translate(-135.17, -52.61)" d="M 135.171 0 L 29.939 52.613 L 135.17 105.226 L 240.396 52.613 L 135.171 0 z M 135.171 63.288 C 126.457 63.288 119.386 58.506 119.386 52.613 C 119.386 46.715 126.452 41.938 135.171 41.938 C 143.89 41.938 150.956 46.72 150.956 52.613 C 150.95 58.511 143.885 63.288 135.171 63.288 z" stroke-linecap="round" />
</g>
		<g transform="matrix(1.89 0 0 1.89 -31.15 -113.85)"  >
<path style="stroke: none; stroke-width: 1; stroke-dasharray: none; stroke-linecap: butt; stroke-dashoffset: 0; stroke-linejoin: miter; stroke-miterlimit: 4; fill: rgb(255,255,255); fill-rule: nonzero; opacity: 1;" vector-effect="non-scaling-stroke"  transform=" translate(-195.32, -151.48)" d="M 162.22 201.728 C 167.248 199.875 171.451 202.80800000000002 172.905 208.43 L 235.927 145.40800000000002 L 248.732 149.67800000000003 L 248.732 63.529 L 141.913 116.941 L 141.913 239.422 L 152.711 228.624 C 151.61 226.673 150.95000000000002 224.144 150.95000000000002 221.149 C 150.95 212.716 155.999 204.022 162.22 201.728 z M 230.956 86.866 C 237.182 84.572 242.225 89.544 242.225 97.971 C 242.225 106.398 237.182 115.092 230.956 117.386 C 224.73 119.67999999999999 219.68699999999998 114.708 219.68699999999998 106.28099999999999 C 219.686 97.853 224.73 89.16 230.956 86.866 z M 198.843 142.003 C 205.069 139.70899999999997 210.112 144.68099999999998 210.112 153.10799999999998 C 210.112 161.53499999999997 205.069 170.22899999999998 198.843 172.52299999999997 C 192.617 174.81699999999998 187.57399999999998 169.84499999999997 187.57399999999998 161.41799999999998 C 187.574 152.991 192.622 144.297 198.843 142.003 z M 150.95 140.175 C 150.95 131.74800000000002 155.993 123.05400000000002 162.219 120.76000000000002 C 168.445 118.46600000000002 173.488 123.43800000000002 173.488 131.865 C 173.488 140.293 168.445 148.98600000000002 162.219 151.28 C 155.994 153.574 150.95 148.603 150.95 140.175 z" stroke-linecap="round" />
</g>
		<g transform="matrix(1.89 0 0 1.89 -258.27 -99.68)"  >
<path style="stroke: none; stroke-width: 1; stroke-dasharray: none; stroke-linecap: butt; stroke-dashoffset: 0; stroke-linejoin: miter; stroke-miterlimit: 4; fill: rgb(255,255,255); fill-rule: nonzero; opacity: 1;" vector-effect="non-scaling-stroke"  transform=" translate(-75.01, -158.97)" d="M 21.599 202.839 L 126.912 254.418 L 128.422 252.90800000000002 L 128.422 116.941 L 21.599 63.529 L 21.599 202.839 z M 107.855 201.728 C 114.081 204.02200000000002 119.12400000000001 212.716 119.12400000000001 221.143 C 119.12400000000001 229.57 114.081 234.542 107.855 232.248 C 101.629 229.95399999999998 96.586 221.26 96.586 212.833 C 96.586 204.406 101.635 199.434 107.855 201.728 z M 75.011 140.298 C 81.237 142.592 86.28 151.285 86.28 159.713 C 86.28 168.14 81.237 173.112 75.011 170.81799999999998 C 68.785 168.52399999999997 63.742 159.82999999999998 63.742 151.403 C 63.741 142.976 68.79 138.004 75.011 140.298 z M 41.208 86.866 C 47.434 89.16 52.477 97.853 52.477 106.281 C 52.477 114.708 47.434 119.68 41.208 117.38600000000001 C 34.982 115.09200000000001 29.939 106.39900000000002 29.939 97.971 C 29.939 89.544 34.982 84.572 41.208 86.866 z" stroke-linecap="round" />
</g>
		<g transform="matrix(1.89 0 0 1.89 -4.63 110.25)"  >
<path style="stroke: none; stroke-width: 1; stroke-dasharray: none; stroke-linecap: butt; stroke-dashoffset: 0; stroke-linejoin: miter; stroke-miterlimit: 4; fill: rgb(255,255,255); fill-rule: nonzero; opacity: 1;" vector-effect="non-scaling-stroke"  transform=" translate(-209.35, -270.16)" d="M 239.726 164.639 L 141.212 263.14300000000003 L 179.755 375.67600000000004 L 277.491 277.93000000000006 L 239.726 164.639 z M 197.655 338.565 C 191.695 344.525 184.609 344.474 181.834 338.447 C 179.059 332.421 181.63400000000001 322.708 187.594 316.748 C 193.554 310.788 200.64 310.839 203.415 316.861 C 206.19 322.883 203.615 332.605 197.655 338.565 z M 230.525 221.773 C 224.565 227.733 217.479 227.68099999999998 214.704 221.66 C 211.924 215.639 214.50400000000002 205.921 220.464 199.96099999999998 C 226.424 194.00099999999998 233.51 194.053 236.285 200.07399999999998 C 239.066 206.1 236.485 215.813 230.525 221.773 z" stroke-linecap="round" />
</g>
</g>
</g>
<g transform="matrix(0 0 0 0 0 0)"  >
<g style=""   >
</g>
</g>
</svg>